# xmcd CD database file
#
# Track frame offsets:
#	150
#	14939
#	30820
#	48547
#	61159
#	76320
#	90653
#	107726
#	121825
#	137809
#	158489
#	175242
#	195698
#	332969
#
# Disc length: 4440 seconds
#
# Revision: 0
# Processed by: cddbd v1.5.1PL2 Copyright (c) Steve Scherf et al.
# Submitted via: CDex 1.51
#
DISCID=b511560e
DTITLE=starsailor - ON THE OUTSIDE
DYEAR=2005
DGENRE=Rock
TTITLE0=IN THE CROSSFIRE
TTITLE1=COUNTERFEIT LIFE
TTITLE2=IN MY BLOOD
TTITLE3=FAITH HOPE LOVE
TTITLE4=I DON'T KNOW
TTITLE5=WAY BACK HOME
TTITLE6=KEEP US TOGETHER
TTITLE7=GET OUT WHILE YOU CAN
TTITLE8=THIS TIME
TTITLE9=WHITE LIGHT
TTITLE10=JEREMIAH
TTITLE11=ALWAYS
TTITLE12=DATE TRACK
TTITLE13=secret track
EXTD=YEAR: 2005
EXTT0=
EXTT1=
EXTT2=
EXTT3=
EXTT4=
EXTT5=
EXTT6=
EXTT7=
EXTT8=
EXTT9=
EXTT10=
EXTT11=
EXTT12=
EXTT13=
PLAYORDER=
